<svg width="239" height="35" viewBox="0 0 239 35" fill="none" xmlns="http://www.w3.org/2000/svg">
<path d="M16.0135 19.792C16.0135 21.016 15.8815 22.156 15.6175 23.212C15.3535 24.268 14.8855 25.192 14.2135 25.984C13.5655 26.776 12.6775 27.4 11.5495 27.856C10.4455 28.312 9.04151 28.54 7.33751 28.54C5.75351 28.54 4.37351 28.324 3.19751 27.892C2.04551 27.436 1.15751 26.956 0.533508 26.452L2.15351 22.888C2.75351 23.296 3.48551 23.692 4.34951 24.076C5.23751 24.436 6.13751 24.616 7.04951 24.616C8.58551 24.616 9.70151 24.232 10.3975 23.464C11.0935 22.696 11.4415 21.376 11.4415 19.504V3.052H16.0135V19.792Z" fill="#F7F7F7"/>
<path d="M38.6105 18.568C38.6105 20.056 38.3945 21.412 37.9625 22.636C37.5305 23.86 36.9185 24.904 36.1265 25.768C35.3345 26.632 34.3745 27.304 33.2465 27.784C32.1425 28.264 30.9185 28.504 29.5745 28.504C28.2305 28.504 27.0065 28.264 25.9025 27.784C24.7985 27.304 23.8505 26.632 23.0585 25.768C22.2665 24.904 21.6425 23.86 21.1865 22.636C20.7545 21.412 20.5385 20.056 20.5385 18.568C20.5385 17.08 20.7545 15.736 21.1865 14.536C21.6425 13.312 22.2665 12.268 23.0585 11.404C23.8745 10.54 24.8345 9.88 25.9385 9.424C27.0425 8.944 28.2545 8.704 29.5745 8.704C30.8945 8.704 32.1065 8.944 33.2105 9.424C34.3385 9.88 35.2985 10.54 36.0905 11.404C36.8825 12.268 37.4945 13.312 37.9265 14.536C38.3825 15.736 38.6105 17.08 38.6105 18.568ZM34.1465 18.568C34.1465 16.696 33.7385 15.22 32.9225 14.14C32.1305 13.036 31.0145 12.484 29.5745 12.484C28.1345 12.484 27.0065 13.036 26.1905 14.14C25.3985 15.22 25.0025 16.696 25.0025 18.568C25.0025 20.464 25.3985 21.964 26.1905 23.068C27.0065 24.172 28.1345 24.724 29.5745 24.724C31.0145 24.724 32.1305 24.172 32.9225 23.068C33.7385 21.964 34.1465 20.464 34.1465 18.568Z" fill="#F7F7F7"/>
<path d="M43.0982 9.78399C43.9382 9.54399 45.0302 9.31599 46.3742 9.09999C47.7182 8.88399 49.2062 8.776 50.8382 8.776C52.3742 8.776 53.6582 8.99199 54.6902 9.424C55.7222 9.832 56.5382 10.42 57.1382 11.188C57.7622 11.932 58.1942 12.844 58.4342 13.924C58.6982 14.98 58.8302 16.144 58.8302 17.416V28H54.4742V18.1C54.4742 17.092 54.4022 16.24 54.2582 15.544C54.1382 14.824 53.9222 14.248 53.6102 13.816C53.3222 13.36 52.9142 13.036 52.3862 12.844C51.8822 12.628 51.2582 12.52 50.5142 12.52C49.9622 12.52 49.3862 12.556 48.7862 12.628C48.1862 12.7 47.7422 12.76 47.4542 12.808V28H43.0982V9.78399Z" fill="#F7F7F7"/>
<path d="M70.7808 24.94C72.1248 24.94 73.1448 24.868 73.8408 24.724V19.9C73.6008 19.828 73.2528 19.756 72.7968 19.684C72.3408 19.612 71.8368 19.576 71.2848 19.576C70.8048 19.576 70.3128 19.612 69.8088 19.684C69.3288 19.756 68.8848 19.888 68.4768 20.08C68.0928 20.272 67.7808 20.548 67.5408 20.908C67.3008 21.244 67.1808 21.676 67.1808 22.204C67.1808 23.236 67.5048 23.956 68.1528 24.364C68.8008 24.748 69.6768 24.94 70.7808 24.94ZM70.4208 8.704C71.8608 8.704 73.0728 8.884 74.0568 9.244C75.0408 9.604 75.8208 10.108 76.3968 10.756C76.9968 11.404 77.4168 12.196 77.6568 13.132C77.9208 14.044 78.0528 15.052 78.0528 16.156V27.568C77.3808 27.712 76.3608 27.88 74.9928 28.072C73.6488 28.288 72.1248 28.396 70.4208 28.396C69.2928 28.396 68.2608 28.288 67.3248 28.072C66.3888 27.856 65.5848 27.508 64.9128 27.028C64.2648 26.548 63.7488 25.924 63.3648 25.156C63.0048 24.388 62.8248 23.44 62.8248 22.312C62.8248 21.232 63.0288 20.32 63.4368 19.576C63.8688 18.832 64.4448 18.232 65.1648 17.776C65.8848 17.296 66.7128 16.96 67.6488 16.768C68.6088 16.552 69.6048 16.444 70.6368 16.444C71.1168 16.444 71.6208 16.48 72.1488 16.552C72.6768 16.6 73.2408 16.696 73.8408 16.84V16.12C73.8408 15.616 73.7808 15.136 73.6608 14.68C73.5408 14.224 73.3248 13.828 73.0128 13.492C72.7248 13.132 72.3288 12.856 71.8248 12.664C71.3448 12.472 70.7328 12.376 69.9888 12.376C68.9808 12.376 68.0568 12.448 67.2168 12.592C66.3768 12.736 65.6928 12.904 65.1648 13.096L64.6248 9.568C65.1768 9.37599 65.9808 9.184 67.0368 8.992C68.0928 8.8 69.2208 8.704 70.4208 8.704Z" fill="#F7F7F7"/>
<path d="M83.1712 4.204L87.5272 3.48399V9.172H94.2232V12.808H87.5272V20.476C87.5272 21.988 87.7672 23.068 88.2472 23.716C88.7272 24.364 89.5432 24.688 90.6952 24.688C91.4872 24.688 92.1832 24.604 92.7832 24.436C93.4072 24.268 93.8992 24.112 94.2592 23.968L94.9792 27.424C94.4752 27.64 93.8152 27.856 92.9992 28.072C92.1832 28.312 91.2232 28.432 90.1192 28.432C88.7752 28.432 87.6472 28.252 86.7352 27.892C85.8472 27.532 85.1392 27.016 84.6112 26.344C84.0832 25.648 83.7112 24.82 83.4952 23.86C83.2792 22.876 83.1712 21.76 83.1712 20.512V4.204Z" fill="#F7F7F7"/>
<path d="M98.4341 28V0.783995L102.79 0.0639954V9.388C103.27 9.22 103.822 9.07599 104.446 8.95599C105.094 8.83599 105.73 8.776 106.354 8.776C107.866 8.776 109.114 8.99199 110.098 9.424C111.106 9.832 111.91 10.42 112.51 11.188C113.11 11.932 113.53 12.832 113.77 13.888C114.034 14.944 114.166 16.12 114.166 17.416V28H109.81V18.1C109.81 17.092 109.738 16.24 109.594 15.544C109.474 14.824 109.258 14.248 108.946 13.816C108.658 13.36 108.262 13.036 107.758 12.844C107.254 12.628 106.63 12.52 105.886 12.52C105.31 12.52 104.722 12.58 104.122 12.7C103.522 12.82 103.078 12.928 102.79 13.024V28H98.4341Z" fill="#F7F7F7"/>
<path d="M126.011 24.94C127.355 24.94 128.375 24.868 129.071 24.724V19.9C128.831 19.828 128.483 19.756 128.027 19.684C127.571 19.612 127.067 19.576 126.515 19.576C126.035 19.576 125.543 19.612 125.039 19.684C124.559 19.756 124.115 19.888 123.707 20.08C123.323 20.272 123.011 20.548 122.771 20.908C122.531 21.244 122.411 21.676 122.411 22.204C122.411 23.236 122.735 23.956 123.383 24.364C124.031 24.748 124.907 24.94 126.011 24.94ZM125.651 8.704C127.091 8.704 128.303 8.884 129.287 9.244C130.271 9.604 131.051 10.108 131.627 10.756C132.227 11.404 132.647 12.196 132.887 13.132C133.151 14.044 133.283 15.052 133.283 16.156V27.568C132.611 27.712 131.591 27.88 130.223 28.072C128.879 28.288 127.355 28.396 125.651 28.396C124.523 28.396 123.491 28.288 122.555 28.072C121.619 27.856 120.815 27.508 120.143 27.028C119.495 26.548 118.979 25.924 118.595 25.156C118.235 24.388 118.055 23.44 118.055 22.312C118.055 21.232 118.259 20.32 118.667 19.576C119.099 18.832 119.675 18.232 120.395 17.776C121.115 17.296 121.943 16.96 122.879 16.768C123.839 16.552 124.835 16.444 125.867 16.444C126.347 16.444 126.851 16.48 127.379 16.552C127.907 16.6 128.471 16.696 129.071 16.84V16.12C129.071 15.616 129.011 15.136 128.891 14.68C128.771 14.224 128.555 13.828 128.243 13.492C127.955 13.132 127.559 12.856 127.055 12.664C126.575 12.472 125.963 12.376 125.219 12.376C124.211 12.376 123.287 12.448 122.447 12.592C121.607 12.736 120.923 12.904 120.395 13.096L119.855 9.568C120.407 9.37599 121.211 9.184 122.267 8.992C123.323 8.8 124.451 8.704 125.651 8.704Z" fill="#F7F7F7"/>
<path d="M138.618 9.78399C139.458 9.54399 140.55 9.31599 141.894 9.09999C143.238 8.88399 144.726 8.776 146.358 8.776C147.894 8.776 149.178 8.99199 150.21 9.424C151.242 9.832 152.058 10.42 152.658 11.188C153.282 11.932 153.714 12.844 153.954 13.924C154.218 14.98 154.35 16.144 154.35 17.416V28H149.994V18.1C149.994 17.092 149.922 16.24 149.778 15.544C149.658 14.824 149.442 14.248 149.13 13.816C148.842 13.36 148.434 13.036 147.906 12.844C147.402 12.628 146.778 12.52 146.034 12.52C145.482 12.52 144.906 12.556 144.306 12.628C143.706 12.7 143.262 12.76 142.974 12.808V28H138.618V9.78399Z" fill="#F7F7F7"/>
<path d="M175.351 2.79999C178.975 2.79999 181.747 3.45999 183.667 4.77999C185.611 6.1 186.583 8.164 186.583 10.972C186.583 12.436 186.319 13.696 185.791 14.752C185.287 15.784 184.543 16.636 183.559 17.308C182.575 17.956 181.375 18.436 179.959 18.748C178.543 19.06 176.923 19.216 175.099 19.216H172.831V28H168.295V3.412C169.351 3.172 170.515 3.016 171.787 2.94399C173.083 2.84799 174.271 2.79999 175.351 2.79999ZM175.675 6.724C174.523 6.724 173.575 6.76 172.831 6.832V15.328H175.027C177.211 15.328 178.891 15.028 180.067 14.428C181.243 13.804 181.831 12.64 181.831 10.936C181.831 10.12 181.675 9.436 181.363 8.884C181.051 8.332 180.619 7.9 180.067 7.588C179.515 7.27599 178.855 7.05999 178.087 6.93999C177.343 6.796 176.539 6.724 175.675 6.724Z" fill="#F7F7F7"/>
<path d="M194.9 28H190.544V9.172H194.9V28ZM195.368 3.66399C195.368 4.48 195.104 5.128 194.576 5.608C194.048 6.08799 193.424 6.32799 192.704 6.32799C191.96 6.32799 191.324 6.08799 190.796 5.608C190.268 5.128 190.004 4.48 190.004 3.66399C190.004 2.82399 190.268 2.164 190.796 1.684C191.324 1.20399 191.96 0.963995 192.704 0.963995C193.424 0.963995 194.048 1.20399 194.576 1.684C195.104 2.164 195.368 2.82399 195.368 3.66399Z" fill="#F7F7F7"/>
<path d="M212.95 18.676C212.95 16.732 212.506 15.22 211.618 14.14C210.754 13.06 209.35 12.52 207.406 12.52C206.998 12.52 206.566 12.544 206.11 12.592C205.678 12.616 205.246 12.688 204.814 12.808V23.572C205.198 23.836 205.702 24.088 206.326 24.328C206.974 24.544 207.658 24.652 208.378 24.652C209.962 24.652 211.114 24.112 211.834 23.032C212.578 21.952 212.95 20.5 212.95 18.676ZM217.414 18.604C217.414 20.044 217.222 21.364 216.838 22.564C216.478 23.764 215.95 24.796 215.254 25.66C214.558 26.524 213.682 27.196 212.626 27.676C211.594 28.156 210.418 28.396 209.098 28.396C208.21 28.396 207.394 28.288 206.65 28.072C205.906 27.856 205.294 27.616 204.814 27.352V34.66H200.458V9.78399C201.346 9.54399 202.438 9.31599 203.734 9.09999C205.03 8.88399 206.398 8.776 207.838 8.776C209.326 8.776 210.658 9.00399 211.834 9.45999C213.01 9.91599 214.006 10.576 214.822 11.44C215.662 12.28 216.298 13.312 216.73 14.536C217.186 15.736 217.414 17.092 217.414 18.604Z" fill="#F7F7F7"/>
<path d="M238.931 18.568C238.931 20.056 238.715 21.412 238.283 22.636C237.851 23.86 237.239 24.904 236.447 25.768C235.655 26.632 234.695 27.304 233.567 27.784C232.463 28.264 231.239 28.504 229.895 28.504C228.551 28.504 227.327 28.264 226.223 27.784C225.119 27.304 224.171 26.632 223.379 25.768C222.587 24.904 221.963 23.86 221.507 22.636C221.075 21.412 220.859 20.056 220.859 18.568C220.859 17.08 221.075 15.736 221.507 14.536C221.963 13.312 222.587 12.268 223.379 11.404C224.195 10.54 225.155 9.88 226.259 9.424C227.363 8.944 228.575 8.704 229.895 8.704C231.215 8.704 232.427 8.944 233.531 9.424C234.659 9.88 235.619 10.54 236.411 11.404C237.203 12.268 237.815 13.312 238.247 14.536C238.703 15.736 238.931 17.08 238.931 18.568ZM234.467 18.568C234.467 16.696 234.059 15.22 233.243 14.14C232.451 13.036 231.335 12.484 229.895 12.484C228.455 12.484 227.327 13.036 226.511 14.14C225.719 15.22 225.323 16.696 225.323 18.568C225.323 20.464 225.719 21.964 226.511 23.068C227.327 24.172 228.455 24.724 229.895 24.724C231.335 24.724 232.451 24.172 233.243 23.068C234.059 21.964 234.467 20.464 234.467 18.568Z" fill="#F7F7F7"/>
</svg>
