<svg width="251" height="50" viewBox="0 0 251 50" fill="none" xmlns="http://www.w3.org/2000/svg">
<path d="M12.2552 11.1702C12.2982 10.9574 12.3198 10.6738 12.3198 10.3191C12.3198 9.75177 12.2229 9.29078 12.0291 8.93617C11.8568 8.58156 11.5769 8.19149 11.1893 7.76596C10.8664 7.37589 10.6295 7.03901 10.4788 6.75532C10.3496 6.47163 10.3173 6.13475 10.3819 5.74468C10.4465 5.24823 10.608 4.91135 10.8664 4.73404C11.1247 4.55674 11.5338 4.46809 12.0937 4.46809H21.2663C21.7185 4.46809 22.063 4.5922 22.2999 4.84043C22.5582 5.08865 22.6874 5.4078 22.6874 5.79787C22.6874 5.97518 22.6551 6.20567 22.5905 6.48936C22.526 6.73759 22.4291 6.96809 22.2999 7.18085C22.1922 7.35816 22.0845 7.5 21.9769 7.60638C21.8908 7.67731 21.8262 7.74823 21.7831 7.81915C21.4386 8.1383 21.1587 8.49291 20.9433 8.88298C20.728 9.27305 20.545 9.87589 20.3943 10.6915L17.2291 29.0957C16.5831 32.8546 15.485 35.656 13.9347 37.5C12.3844 39.3085 10.3711 40.2128 7.89493 40.2128C6.23697 40.2128 4.82662 39.8227 3.66389 39.0426C2.52269 38.2269 1.66141 37.1454 1.08005 35.7979C0.498683 34.4504 0.208 32.9787 0.208 31.383C0.208 30.6028 0.272596 29.8404 0.401788 29.0957C0.681705 27.5 1.15541 26.2943 1.8229 25.4787C2.51193 24.6631 3.27631 24.2553 4.11606 24.2553C5.08501 24.2553 5.82786 24.734 6.34463 25.6915C6.8614 26.6489 7.11978 27.8723 7.11978 29.3617C7.11978 30.1064 7.05519 30.8511 6.92599 31.5957C6.66761 33.0851 6.18314 34.1844 5.47258 34.8936C5.81709 35.2482 6.21544 35.4255 6.66761 35.4255C7.11978 35.4255 7.51813 35.0532 7.86264 34.3085C8.20715 33.5638 8.49783 32.5177 8.73468 31.1702L12.2552 11.1702Z" fill="#F7F7F7"/>
<path d="M31.8379 11.7553C34.7662 11.7553 36.9194 12.7305 38.2975 14.6809C39.6971 16.6312 40.3969 19.1844 40.3969 22.3404C40.3969 23.4043 40.3107 24.5922 40.1385 25.9043C39.7294 28.8121 38.965 31.3652 37.8453 33.5638C36.7257 35.7269 35.3476 37.4113 33.7112 38.617C32.0963 39.7872 30.3414 40.3723 28.4466 40.3723C25.4536 40.3723 23.2358 39.3972 21.7932 37.4468C20.3721 35.461 19.6615 32.8369 19.6615 29.5745C19.6615 28.4752 19.7476 27.2518 19.9199 25.9043C20.329 23.1383 21.1042 20.6915 22.2454 18.5638C23.4081 16.4007 24.8184 14.734 26.4764 13.5638C28.1559 12.3582 29.9431 11.7553 31.8379 11.7553ZM31.741 16.4894C31.2888 16.4894 30.8043 17.1631 30.2876 18.5106C29.7923 19.8227 29.2002 22.3227 28.5112 26.0106C27.8222 29.6986 27.4776 32.2872 27.4776 33.7766C27.4776 34.5567 27.553 35.0887 27.7037 35.3723C27.8545 35.6206 28.059 35.7447 28.3174 35.7447C28.7696 35.8156 29.2325 35.1773 29.7062 33.8298C30.2014 32.4823 30.8151 29.8582 31.5472 25.9574C32.2147 22.5177 32.5484 20.0177 32.5484 18.4574C32.5484 17.7128 32.4731 17.1986 32.3224 16.9149C32.1932 16.6312 31.9994 16.4894 31.741 16.4894Z" fill="#F7F7F7"/>
<path d="M60.5266 32.5532C60.4836 32.695 60.462 32.9078 60.462 33.1915C60.462 33.4397 60.4943 33.6348 60.5589 33.7766C60.645 33.9184 60.7527 33.9894 60.8819 33.9894C61.1403 33.9894 61.3556 33.8121 61.5279 33.4574C61.7216 33.0674 61.8508 32.8723 61.9154 32.8723C62.0231 32.8723 62.1092 32.9965 62.1738 33.2447C62.2384 33.4574 62.2707 33.7234 62.2707 34.0426C62.2922 35.0709 62.0877 36.0816 61.657 37.0745C61.2264 38.0319 60.5912 38.8298 59.7515 39.4681C58.9332 40.0709 57.9428 40.3723 56.78 40.3723C55.3589 40.3723 54.2285 39.8404 53.3888 38.7766C52.549 37.6773 52.1184 36.2234 52.0968 34.4149C52.0968 33.1028 52.2906 31.6312 52.6782 30L54.4546 22.3404C54.5622 21.8794 54.6161 21.5071 54.6161 21.2234C54.6161 20.7624 54.5192 20.4078 54.3254 20.1596C54.1531 19.8759 53.9378 19.734 53.6794 19.734C53.2057 19.734 52.7536 20.1064 52.3229 20.8511C51.8923 21.5603 51.5801 22.4468 51.3863 23.5106L49.3838 34.3617C49.2977 34.7518 49.2546 35.1241 49.2546 35.4787C49.2546 35.9043 49.3084 36.2589 49.4161 36.5426C49.5238 36.7908 49.6745 37.0567 49.8683 37.3404C50.019 37.5532 50.1266 37.7482 50.1912 37.9255C50.2558 38.1028 50.2666 38.3156 50.2235 38.5638C50.1374 39.0248 49.9329 39.3617 49.6099 39.5745C49.2869 39.7872 48.7809 39.8936 48.0919 39.8936H40.7279C40.1681 39.8936 39.7697 39.7518 39.5329 39.4681C39.2745 39.1489 39.1776 38.7411 39.2422 38.2447C39.3283 37.8191 39.5544 37.4468 39.9205 37.1277C40.2434 36.844 40.5126 36.5071 40.7279 36.117C40.9432 35.7269 41.1263 35.1064 41.277 34.2553L44.1515 18.883C44.1946 18.7057 44.2161 18.4574 44.2161 18.1383C44.2161 17.7482 44.1623 17.4468 44.0546 17.234C43.9685 17.0213 43.8178 16.7553 43.6024 16.4362C43.3871 16.1525 43.2364 15.9043 43.1503 15.6915C43.0641 15.4787 43.0534 15.195 43.118 14.8404C43.2472 14.0248 43.9254 13.3156 45.1527 12.7128C46.3801 12.0745 47.6612 11.7553 48.9962 11.7553C50.0728 11.7553 50.9233 12.2518 51.5478 13.2447C52.1722 14.2021 52.4521 15.5496 52.3875 17.2872C53.2703 15.195 54.207 13.7589 55.1974 12.9787C56.1879 12.1631 57.2645 11.7553 58.4272 11.7553C59.7407 11.7553 60.7958 12.4113 61.5925 13.7234C62.4107 15.0355 62.8198 16.7376 62.8198 18.8298C62.8198 19.9291 62.7121 21.0106 62.4968 22.0745L60.5266 32.5532Z" fill="#F7F7F7"/>
<path d="M75.1841 11.7553C77.6603 11.7553 79.6413 12.5177 81.127 14.0426C82.6127 15.5319 83.3555 17.8191 83.3555 20.9043C83.3555 22.0745 83.2263 23.4043 82.968 24.8936L81.6437 32.234C81.6222 32.3759 81.6114 32.5532 81.6114 32.766C81.6114 33.3333 81.7514 33.617 82.0313 33.617C82.2897 33.617 82.505 33.4397 82.6773 33.0851C82.8711 32.695 83.0003 32.5 83.0649 32.5C83.1725 32.5 83.2586 32.6241 83.3232 32.8723C83.4094 33.1206 83.4524 33.4043 83.4524 33.7234C83.474 34.6808 83.2479 35.656 82.7742 36.6489C82.322 37.6418 81.7083 38.4574 80.9332 39.0957C80.158 39.734 79.3075 40.0532 78.3816 40.0532C77.262 40.0532 76.3038 39.7163 75.5071 39.0426C74.7104 38.3688 74.1614 37.3759 73.8599 36.0638C73.2139 37.3404 72.4496 38.3333 71.5667 39.0426C70.6839 39.7163 69.7365 40.0532 68.7245 40.0532C67.5833 40.0532 66.6251 39.6986 65.85 38.9894C65.0748 38.2447 64.4935 37.305 64.1059 36.1702C63.7399 35 63.5568 33.7766 63.5568 32.5C63.5568 31.9326 63.5891 31.383 63.6537 30.8511C63.9982 28.4043 64.7411 26.5603 65.8823 25.3191C67.045 24.078 68.4231 23.4574 70.0164 23.4574C71.8036 23.4574 73.5585 23.9184 75.281 24.8404L76.0885 21.3298C76.3684 19.8404 76.5083 18.6879 76.5083 17.8723C76.4868 17.0213 76.3146 16.383 75.9916 15.9574C75.6686 15.5319 75.1734 15.3192 74.5059 15.3192C74.6351 15.8865 74.6997 16.4716 74.6997 17.0745C74.6997 18.3865 74.3982 19.5213 73.7953 20.4787C73.1924 21.4362 72.3311 21.9149 71.2115 21.9149C70.1564 21.9149 69.3274 21.5426 68.7245 20.7979C68.1432 20.0177 67.8525 19.0603 67.8525 17.9255C67.8525 16.1525 68.4554 14.6809 69.6612 13.5106C70.867 12.3404 72.7079 11.7553 75.1841 11.7553ZM73.3754 27.8723C72.7725 27.8723 72.2773 28.2624 71.8897 29.0426C71.5237 29.7872 71.3407 30.6028 71.3407 31.4894C71.3407 32.0567 71.416 32.5177 71.5667 32.8723C71.739 33.227 71.9759 33.4043 72.2773 33.4043C72.5572 33.4043 72.8587 33.227 73.1817 32.8723C73.5262 32.4823 73.7738 31.9149 73.9245 31.1702L74.6028 28.0319C74.2367 27.9255 73.8276 27.8723 73.3754 27.8723Z" fill="#F7F7F7"/>
<path d="M99.2235 12.4468C99.6326 12.4468 99.9448 12.5887 100.16 12.8723C100.397 13.156 100.515 13.5461 100.515 14.0426C100.515 14.1844 100.494 14.4326 100.451 14.7872C100.171 16.3475 99.5249 17.1277 98.5129 17.1277H96.6396L94.2173 30.266C94.1096 30.7979 94.0558 31.3475 94.0558 31.9149C94.0558 32.5532 94.1634 32.9965 94.3788 33.2447C94.5941 33.4929 94.8955 33.617 95.2831 33.617C95.6276 33.617 96.0583 33.5461 96.575 33.4043C96.8334 33.2979 97.0595 33.2447 97.2533 33.2447C97.404 33.2447 97.5117 33.3333 97.5763 33.5106C97.6624 33.6525 97.7055 33.8475 97.7055 34.0957C97.727 34.805 97.404 35.6738 96.7365 36.7021C96.0906 37.695 95.2077 38.5638 94.0881 39.3085C92.9684 40.0177 91.7303 40.3723 90.3738 40.3723C88.9096 40.3723 87.7361 39.8227 86.8533 38.7234C85.9705 37.6241 85.5291 36.117 85.5291 34.2021C85.5291 33.3156 85.6152 32.4645 85.7875 31.6489L87.8545 21.117C87.9622 20.5142 88.016 20.0355 88.016 19.6809C88.016 18.9716 87.9084 18.3688 87.6931 17.8723C87.4993 17.3759 87.2194 16.8617 86.8533 16.3298C86.5303 15.8333 86.3042 15.4255 86.175 15.1064C86.0459 14.7518 86.0136 14.344 86.0782 13.883C86.1643 13.422 86.3473 13.0674 86.6272 12.8192C86.9071 12.5709 87.3485 12.4468 87.9514 12.4468H89.7601L91.7949 9.09574C92.5055 7.92553 93.1514 7.10993 93.7328 6.64894C94.3357 6.18794 95.1108 5.95745 96.0583 5.95745C97.4148 5.95745 98.093 6.80851 98.093 8.51064C98.093 9.04255 98.05 9.53901 97.9638 10L97.5117 12.4468H99.2235Z" fill="#F7F7F7"/>
<path d="M118.463 32.5532C118.42 32.695 118.398 32.9078 118.398 33.1915C118.398 33.4397 118.431 33.6348 118.495 33.7766C118.581 33.9184 118.689 33.9894 118.818 33.9894C119.077 33.9894 119.292 33.8121 119.464 33.4574C119.658 33.0674 119.787 32.8723 119.852 32.8723C119.959 32.8723 120.046 32.9965 120.11 33.2447C120.175 33.4574 120.207 33.7234 120.207 34.0426C120.229 35.0709 120.024 36.0816 119.593 37.0745C119.163 38.0319 118.528 38.8298 117.688 39.4681C116.87 40.0709 115.879 40.3723 114.716 40.3723C113.295 40.3723 112.165 39.8404 111.325 38.7766C110.485 37.6773 110.055 36.2234 110.033 34.4149C110.033 33.1028 110.227 31.6312 110.615 30L112.391 22.3404C112.499 21.8794 112.552 21.5071 112.552 21.2234C112.552 20.7624 112.456 20.4078 112.262 20.1596C112.09 19.8759 111.874 19.734 111.616 19.734C111.207 19.734 110.787 20.0532 110.356 20.6915C109.947 21.2943 109.613 22.2872 109.355 23.6702V23.5638L107.32 34.3617C107.256 34.7872 107.223 35.1596 107.223 35.4787C107.223 35.9397 107.277 36.3121 107.385 36.5957C107.492 36.844 107.643 37.0922 107.837 37.3404C107.988 37.5887 108.095 37.8014 108.16 37.9787C108.225 38.1206 108.235 38.3156 108.192 38.5638C108.085 39.0248 107.869 39.3617 107.546 39.5745C107.223 39.7872 106.728 39.8936 106.061 39.8936H98.6966C98.1368 39.8936 97.7277 39.7518 97.4693 39.4681C97.2109 39.1489 97.1248 38.7411 97.2109 38.2447C97.297 37.8191 97.5231 37.4468 97.8891 37.1277C98.2121 36.844 98.4813 36.5071 98.6966 36.117C98.9119 35.7269 99.0949 35.1064 99.2457 34.2553L104.155 7.71277C104.22 7.39362 104.252 7.12766 104.252 6.9149C104.252 6.52482 104.187 6.20567 104.058 5.95745C103.95 5.70922 103.8 5.46099 103.606 5.21277C103.391 4.92908 103.229 4.68085 103.121 4.46809C103.035 4.25532 103.025 3.97163 103.089 3.61702C103.218 2.80142 103.897 2.0922 105.124 1.48936C106.351 0.886526 107.632 0.585108 108.967 0.585108C110.216 0.585108 111.131 0.975179 111.713 1.75532C112.316 2.53546 112.617 3.59929 112.617 4.94681C112.617 5.72695 112.542 6.48936 112.391 7.23404L110.647 16.5957C111.487 14.7872 112.369 13.5284 113.295 12.8192C114.243 12.1099 115.265 11.7553 116.364 11.7553C117.677 11.7553 118.732 12.4113 119.529 13.7234C120.347 15.0355 120.756 16.7376 120.756 18.8298C120.756 19.9291 120.649 21.0106 120.433 22.0745L118.463 32.5532Z" fill="#F7F7F7"/>
<path d="M133.125 11.7553C135.601 11.7553 137.582 12.5177 139.068 14.0426C140.554 15.5319 141.296 17.8191 141.296 20.9043C141.296 22.0745 141.167 23.4043 140.909 24.8936L139.585 32.234C139.563 32.3759 139.552 32.5532 139.552 32.766C139.552 33.3333 139.692 33.617 139.972 33.617C140.231 33.617 140.446 33.4397 140.618 33.0851C140.812 32.695 140.941 32.5 141.006 32.5C141.113 32.5 141.2 32.6241 141.264 32.8723C141.35 33.1206 141.393 33.4043 141.393 33.7234C141.415 34.6808 141.189 35.656 140.715 36.6489C140.263 37.6418 139.649 38.4574 138.874 39.0957C138.099 39.734 137.248 40.0532 136.323 40.0532C135.203 40.0532 134.245 39.7163 133.448 39.0426C132.651 38.3688 132.102 37.3759 131.801 36.0638C131.155 37.3404 130.39 38.3333 129.508 39.0426C128.625 39.7163 127.677 40.0532 126.665 40.0532C125.524 40.0532 124.566 39.6986 123.791 38.9894C123.016 38.2447 122.434 37.305 122.047 36.1702C121.681 35 121.498 33.7766 121.498 32.5C121.498 31.9326 121.53 31.383 121.595 30.8511C121.939 28.4043 122.682 26.5603 123.823 25.3191C124.986 24.078 126.364 23.4574 127.957 23.4574C129.745 23.4574 131.499 23.9184 133.222 24.8404L134.029 21.3298C134.309 19.8404 134.449 18.6879 134.449 17.8723C134.428 17.0213 134.255 16.383 133.933 15.9574C133.61 15.5319 133.114 15.3192 132.447 15.3192C132.576 15.8865 132.641 16.4716 132.641 17.0745C132.641 18.3865 132.339 19.5213 131.736 20.4787C131.133 21.4362 130.272 21.9149 129.152 21.9149C128.097 21.9149 127.268 21.5426 126.665 20.7979C126.084 20.0177 125.793 19.0603 125.793 17.9255C125.793 16.1525 126.396 14.6809 127.602 13.5106C128.808 12.3404 130.649 11.7553 133.125 11.7553ZM131.316 27.8723C130.713 27.8723 130.218 28.2624 129.831 29.0426C129.465 29.7872 129.282 30.6028 129.282 31.4894C129.282 32.0567 129.357 32.5177 129.508 32.8723C129.68 33.227 129.917 33.4043 130.218 33.4043C130.498 33.4043 130.8 33.227 131.123 32.8723C131.467 32.4823 131.715 31.9149 131.865 31.1702L132.544 28.0319C132.178 27.9255 131.769 27.8723 131.316 27.8723Z" fill="#F7F7F7"/>
<path d="M162.72 32.5532C162.677 32.695 162.655 32.9078 162.655 33.1915C162.655 33.4397 162.687 33.6348 162.752 33.7766C162.838 33.9184 162.946 33.9894 163.075 33.9894C163.333 33.9894 163.549 33.8121 163.721 33.4574C163.915 33.0674 164.044 32.8723 164.108 32.8723C164.216 32.8723 164.302 32.9965 164.367 33.2447C164.431 33.4574 164.464 33.7234 164.464 34.0426C164.485 35.0709 164.281 36.0816 163.85 37.0745C163.419 38.0319 162.784 38.8298 161.945 39.4681C161.126 40.0709 160.136 40.3723 158.973 40.3723C157.552 40.3723 156.422 39.8404 155.582 38.7766C154.742 37.6773 154.311 36.2234 154.29 34.4149C154.29 33.1028 154.484 31.6312 154.871 30L156.648 22.3404C156.755 21.8794 156.809 21.5071 156.809 21.2234C156.809 20.7624 156.712 20.4078 156.518 20.1596C156.346 19.8759 156.131 19.734 155.872 19.734C155.399 19.734 154.947 20.1064 154.516 20.8511C154.085 21.5603 153.773 22.4468 153.579 23.5106L151.577 34.3617C151.491 34.7518 151.448 35.1241 151.448 35.4787C151.448 35.9043 151.501 36.2589 151.609 36.5426C151.717 36.7908 151.868 37.0567 152.061 37.3404C152.212 37.5532 152.32 37.7482 152.384 37.9255C152.449 38.1028 152.46 38.3156 152.417 38.5638C152.33 39.0248 152.126 39.3617 151.803 39.5745C151.48 39.7872 150.974 39.8936 150.285 39.8936H142.921C142.361 39.8936 141.963 39.7518 141.726 39.4681C141.468 39.1489 141.371 38.7411 141.435 38.2447C141.521 37.8191 141.747 37.4468 142.114 37.1277C142.436 36.844 142.706 36.5071 142.921 36.117C143.136 35.7269 143.319 35.1064 143.47 34.2553L146.345 18.883C146.388 18.7057 146.409 18.4574 146.409 18.1383C146.409 17.7482 146.355 17.4468 146.248 17.234C146.162 17.0213 146.011 16.7553 145.795 16.4362C145.58 16.1525 145.429 15.9043 145.343 15.6915C145.257 15.4787 145.246 15.195 145.311 14.8404C145.44 14.0248 146.118 13.3156 147.346 12.7128C148.573 12.0745 149.854 11.7553 151.189 11.7553C152.266 11.7553 153.116 12.2518 153.741 13.2447C154.365 14.2021 154.645 15.5496 154.581 17.2872C155.463 15.195 156.4 13.7589 157.39 12.9787C158.381 12.1631 159.458 11.7553 160.62 11.7553C161.934 11.7553 162.989 12.4113 163.785 13.7234C164.604 15.0355 165.013 16.7376 165.013 18.8298C165.013 19.9291 164.905 21.0106 164.69 22.0745L162.72 32.5532Z" fill="#F7F7F7"/>
<path d="M189.721 4.46809C192.004 4.46809 193.759 5.28369 194.986 6.9149C196.235 8.5461 196.859 10.7092 196.859 13.4043C196.859 14.4681 196.762 15.5851 196.569 16.7553C195.966 20.3014 194.771 22.9255 192.983 24.6277C191.218 26.3298 188.978 27.1809 186.265 27.1809H182.939L181.841 33.617C181.798 33.8298 181.776 34.1135 181.776 34.4681C181.776 34.9645 181.841 35.3723 181.97 35.6915C182.121 36.0106 182.336 36.383 182.616 36.8085C182.853 37.1631 183.014 37.4291 183.1 37.6064C183.186 37.7837 183.229 37.9965 183.229 38.2447C183.229 38.8475 183.057 39.273 182.713 39.5213C182.368 39.7695 181.862 39.8936 181.195 39.8936H173.088C172.528 39.8936 172.108 39.734 171.828 39.4149C171.548 39.0603 171.451 38.5816 171.538 37.9787C171.581 37.6596 171.667 37.4113 171.796 37.234C171.904 37.0213 172.076 36.7908 172.313 36.5426C172.679 36.1879 172.969 35.8156 173.185 35.4255C173.4 35.0355 173.572 34.4326 173.701 33.617L177.642 10.6915C177.728 10.2305 177.771 9.78724 177.771 9.3617C177.771 8.97163 177.728 8.65248 177.642 8.40426C177.577 8.12057 177.48 7.80142 177.351 7.44681C177.157 6.98582 177.06 6.61348 177.06 6.32979C177.06 6.22341 177.082 6.02837 177.125 5.74468C177.211 5.28369 177.394 4.96454 177.674 4.78724C177.976 4.57447 178.428 4.46809 179.031 4.46809H189.721ZM188.882 15.7979C189.118 14.4858 189.237 13.3333 189.237 12.3404C189.237 10.2837 188.655 9.25532 187.493 9.25532H186.039L183.746 22.3936H185.167C186.072 22.3936 186.804 21.9326 187.364 21.0106C187.945 20.0532 188.451 18.3156 188.882 15.7979Z" fill="#F7F7F7"/>
<path d="M203.485 11.7553C204.734 11.7553 205.649 12.1454 206.23 12.9255C206.812 13.7057 207.102 14.7695 207.102 16.117C207.102 16.9326 207.027 17.7128 206.876 18.4574L203.905 34.3617C203.84 34.7872 203.808 35.1596 203.808 35.4787C203.808 35.9397 203.862 36.3121 203.97 36.5957C204.077 36.844 204.228 37.0922 204.422 37.3404C204.572 37.5887 204.68 37.8014 204.745 37.9787C204.809 38.1206 204.82 38.3156 204.777 38.5638C204.669 39.0248 204.454 39.3617 204.131 39.5745C203.808 39.7872 203.313 39.8936 202.645 39.8936H195.281C194.722 39.8936 194.312 39.7518 194.054 39.4681C193.796 39.1489 193.71 38.7411 193.796 38.2447C193.882 37.8191 194.108 37.4468 194.474 37.1277C194.797 36.844 195.066 36.5071 195.281 36.117C195.497 35.7269 195.68 35.1064 195.83 34.2553L198.64 18.883C198.705 18.5638 198.737 18.2979 198.737 18.0851C198.737 17.695 198.683 17.3936 198.576 17.1809C198.468 16.9326 198.307 16.6844 198.091 16.4362C197.876 16.1525 197.725 15.9043 197.639 15.6915C197.553 15.4787 197.542 15.195 197.607 14.8404C197.736 14.0248 198.414 13.3156 199.642 12.7128C200.869 12.0745 202.15 11.7553 203.485 11.7553ZM205.649 0C206.489 0 207.189 0.460993 207.748 1.38298C208.308 2.2695 208.588 3.36879 208.588 4.68085C208.588 5.60284 208.437 6.50709 208.136 7.39362C207.856 8.28014 207.447 9.00709 206.909 9.57447C206.392 10.1064 205.811 10.3723 205.165 10.3723C204.346 10.3723 203.657 9.92908 203.098 9.04255C202.559 8.12057 202.279 6.98582 202.258 5.6383C202.258 4.75177 202.398 3.88298 202.678 3.03192C202.958 2.14539 203.356 1.41844 203.873 0.851065C204.389 0.283688 204.982 0 205.649 0Z" fill="#F7F7F7"/>
<path d="M223.71 11.5426C225.368 11.5426 226.671 12.4468 227.619 14.2553C228.566 16.0638 229.04 18.5284 229.04 21.6489C229.04 23.3156 228.9 25.0709 228.62 26.9149C227.974 31.3121 226.768 34.6631 225.002 36.9681C223.237 39.2376 221.191 40.3723 218.866 40.3723C217.38 40.3723 216.088 39.8582 214.99 38.8298L213.956 44.5213C213.87 44.9113 213.827 45.2837 213.827 45.6383C213.827 46.0284 213.881 46.3475 213.989 46.5957C214.096 46.8794 214.236 47.1454 214.409 47.3936C214.581 47.6773 214.689 47.9078 214.732 48.0851C214.796 48.2624 214.807 48.4752 214.764 48.7234C214.678 49.1844 214.473 49.5035 214.15 49.6809C213.827 49.8936 213.332 50 212.665 50H205.268C204.708 50 204.31 49.8404 204.073 49.5213C203.815 49.2376 203.74 48.8652 203.847 48.4043C203.89 48.1206 203.966 47.8901 204.073 47.7128C204.181 47.5355 204.332 47.3759 204.525 47.234C204.848 46.8794 205.107 46.5071 205.301 46.117C205.494 45.7624 205.667 45.1773 205.817 44.3617L210.533 18.883C210.597 18.5638 210.63 18.2979 210.63 18.0851C210.63 17.695 210.576 17.3936 210.468 17.1809C210.361 16.9326 210.199 16.6844 209.984 16.4362C209.768 16.1525 209.618 15.9043 209.532 15.6915C209.445 15.4787 209.435 15.195 209.499 14.8404C209.629 14.0248 210.307 13.3156 211.534 12.7128C212.761 12.0745 214.043 11.7553 215.378 11.7553C216.325 11.7553 217.1 12.1454 217.703 12.9255C218.327 13.7057 218.683 14.7872 218.769 16.1702C220.233 13.0851 221.88 11.5426 223.71 11.5426ZM219.964 27.3404C220.481 24.1844 220.739 22.0035 220.739 20.7979C220.739 20.0532 220.664 19.5745 220.513 19.3617C220.384 19.1135 220.19 18.9894 219.932 18.9894C219.738 18.9894 219.49 19.1489 219.189 19.4681C218.887 19.7518 218.586 20.2482 218.284 20.9574L215.733 34.8936C215.991 35.3191 216.303 35.5319 216.67 35.5319C217.251 35.5319 217.8 35 218.317 33.9362C218.855 32.8369 219.404 30.6383 219.964 27.3404Z" fill="#F7F7F7"/>
<path d="M241.649 11.7553C244.577 11.7553 246.731 12.7305 248.109 14.6809C249.508 16.6312 250.208 19.1844 250.208 22.3404C250.208 23.4043 250.122 24.5922 249.95 25.9043C249.541 28.8121 248.776 31.3652 247.656 33.5638C246.537 35.7269 245.159 37.4113 243.522 38.617C241.907 39.7872 240.153 40.3723 238.258 40.3723C235.265 40.3723 233.047 39.3972 231.604 37.4468C230.183 35.461 229.473 32.8369 229.473 29.5745C229.473 28.4752 229.559 27.2518 229.731 25.9043C230.14 23.1383 230.915 20.6915 232.057 18.5638C233.219 16.4007 234.63 14.734 236.288 13.5638C237.967 12.3582 239.754 11.7553 241.649 11.7553ZM241.552 16.4894C241.1 16.4894 240.615 17.1631 240.099 18.5106C239.603 19.8227 239.011 22.3227 238.322 26.0106C237.633 29.6986 237.289 32.2872 237.289 33.7766C237.289 34.5567 237.364 35.0887 237.515 35.3723C237.666 35.6206 237.87 35.7447 238.129 35.7447C238.581 35.8156 239.044 35.1773 239.517 33.8298C240.013 32.4823 240.626 29.8582 241.358 25.9574C242.026 22.5177 242.36 20.0177 242.36 18.4574C242.36 17.7128 242.284 17.1986 242.133 16.9149C242.004 16.6312 241.81 16.4894 241.552 16.4894Z" fill="#F7F7F7"/>
</svg>
